# xmcd CD database file
#
# Track frame offsets:
#	150
#	20152
#	36622
#	55770
#	79395
#	98965
#	120322
#	136977
#	158557
#	183115
#	203352
#	223470
#
# Disc length: 3266 seconds
#
# Revision: 19
# Processed by: cddbd v1.5.2PL0 Copyright (c) Steve Scherf et al.
# Submitted via: CDex 1.70beta3
#
DISCID=a50cc00c
DTITLE=平井堅 - LIFE is...
DYEAR=2003
DGENRE=JPop
TTITLE0=Strawberry Sex
TTITLE1=REVOLVER
TTITLE2=ex-girlfriend
TTITLE3=Ring
TTITLE4=Come Back
TTITLE5=somebody's girl
TTITLE6=I'm so drunk
TTITLE7=Missin' you～It will break my heart～
TTITLE8=世界で一番君が好き?
TTITLE9=メモリーズ
TTITLE10=LIFE is...
TTITLE11=大きな古時計
EXTD=YEAR: 2003
EXTT0=
EXTT1=
EXTT2=
EXTT3=
EXTT4=
EXTT5=
EXTT6=
EXTT7=
EXTT8=
EXTT9=
EXTT10=
EXTT11=
PLAYORDER=
